<svg xmlns="http://www.w3.org/2000/svg" viewBox="0 0 64 64" width="512" height="512"><g id="Education_Insurance" data-name="Education Insurance"><path d="M63,31c-6.4834,0-11.24609-4.66113-11.294-4.708a1.00111,1.00111,0,0,0-1.41308.001C50.24609,26.33984,45.51074,31,39,31a.99974.99974,0,0,0-1,1v9.63086A16.81783,16.81783,0,0,0,50.75781,57.97021a1.00333,1.00333,0,0,0,.48535,0A16.81929,16.81929,0,0,0,64,41.63086V32A.99974.99974,0,0,0,63,31ZM62,41.63086A14.82213,14.82213,0,0,1,51,55.96729,14.82127,14.82127,0,0,1,40,41.63086V32.96875a19.62413,19.62413,0,0,0,11-4.623,19.62413,19.62413,0,0,0,11,4.623Z"></path><path d="M50.43945,31.25781A22.22138,22.22138,0,0,1,42.791,34.59375a1.00061,1.00061,0,0,0-.791.978v6.05908A12.834,12.834,0,0,0,50.67676,53.7793a.99952.99952,0,0,0,.64648,0A12.834,12.834,0,0,0,60,41.63086V35.57178a1.00061,1.00061,0,0,0-.791-.978,22.22138,22.22138,0,0,1-7.64843-3.33594A.99885.99885,0,0,0,50.43945,31.25781ZM58,36.36426v5.2666a10.83525,10.83525,0,0,1-7,10.13965,10.83525,10.83525,0,0,1-7-10.13965v-5.2666a24.35217,24.35217,0,0,0,7-3.08155A24.35217,24.35217,0,0,0,58,36.36426Z"></path><path d="M48.707,41.293A.99989.99989,0,0,0,47.293,42.707l2,2a.99963.99963,0,0,0,1.41406,0l4-4A.99989.99989,0,0,0,53.293,39.293L50,42.58594Z"></path><path d="M34.66113,35.979,32,36.937,14,30.45752V19.58289l17.66113,6.358a1.00138,1.00138,0,0,0,.67774,0L50,19.58289V23a1,1,0,0,0,2,0V18.86292l5.33887-1.922a1.00012,1.00012,0,0,0,0-1.88184l-25-9a.99749.99749,0,0,0-.67774,0L6.82526,15H6a4.00427,4.00427,0,0,0-4,4V43.18427a3,3,0,1,0,2,0V19a2.00229,2.00229,0,0,1,2-2h.82526L12,18.86292V31.16016a1.00032,1.00032,0,0,0,.66113.94091l19,6.83985a1.00138,1.00138,0,0,0,.67774,0l3-1.08008a1.00008,1.00008,0,0,0-.67774-1.88184ZM3,47a1,1,0,1,1,1-1A1.001,1.001,0,0,1,3,47ZM28,15H12.73L32,8.063,54.04785,16,32,23.937,12.73,17H28a1,1,0,0,0,0-2Z"></path></g></svg>