<svg xmlns="http://www.w3.org/2000/svg" id="Layer_1" height="512" viewBox="0 0 512 512" width="512" data-name="Layer 1"><path d="m81.911 113.984a219.164 219.164 0 0 0 -59.406 133.167 221.559 221.559 0 0 0 163.918 232.764 12 12 0 1 0 6.128-23.2 197.572 197.572 0 0 1 -.7-381.7l-25.18 27.838a12 12 0 1 0 17.8 16.1l48.644-53.777a12 12 0 0 0 -1.433-17.443l-56.772-45.127a12 12 0 0 0 -14.933 18.788l35.341 28.092a222.925 222.925 0 0 0 -113.407 64.498z"></path><path d="m490.292 261.808a12 12 0 0 0 -12-12h-25.587a12 12 0 1 0 0 24h25.587a12 12 0 0 0 12-12z"></path><path d="m444.148 327.356a12 12 0 0 0 -8.756 22.345l23.823 9.336a12 12 0 0 0 8.757-22.345z"></path><path d="m391.58 414.043 18.774 17.387a12 12 0 0 0 16.307-17.609l-18.774-17.386a12 12 0 1 0 -16.307 17.608z"></path><path d="m332.893 441.939a12 12 0 0 0 -5.581 16.026l11.136 23.035a12 12 0 0 0 21.608-10.445l-11.137-23.035a12 12 0 0 0 -16.026-5.581z"></path><path d="m262.493 462.523a12 12 0 0 0 -11.044 12.885l1.963 25.512a12 12 0 0 0 11.951 11.08c.309 0 .62-.011.933-.036a12 12 0 0 0 11.044-12.884l-1.963-25.513a12 12 0 0 0 -12.884-11.044z"></path><path d="m269.03 70.012a12 12 0 0 0 11.862-10.289l3.65-25.327a12 12 0 1 0 -23.753-3.423l-3.651 25.327a12.008 12.008 0 0 0 11.892 13.712z"></path><path d="m343.1 93.759a12 12 0 0 0 10.445-6.074l12.639-22.248a12 12 0 0 0 -20.867-11.855l-12.645 22.248a12 12 0 0 0 10.428 17.929z"></path><path d="m415.758 105.473-19.885 16.1a12 12 0 1 0 15.1 18.652l19.886-16.1a12 12 0 0 0 -15.1-18.652z"></path><path d="m462.413 179.49-24.39 7.737a12 12 0 1 0 7.257 22.873l24.39-7.737a12 12 0 0 0 -7.257-22.877z"></path><path d="m242.4 142.7v113.3a12 12 0 0 0 12 12h101.513a12 12 0 0 0 0-24h-89.513v-101.3a12 12 0 0 0 -24 0z"></path></svg>