<svg xmlns="http://www.w3.org/2000/svg" xmlns:xlink="http://www.w3.org/1999/xlink" id="Capa_1" x="0px" y="0px" viewBox="0 0 442 442" style="enable-background:new 0 0 442 442;" xml:space="preserve"><path d="M441.782,388.446L378.253,88.954c-0.01-0.046-0.026-0.09-0.036-0.136c-0.033-0.145-0.075-0.287-0.114-0.43 c-0.056-0.206-0.115-0.411-0.183-0.611c-0.043-0.125-0.092-0.248-0.14-0.372c-0.083-0.215-0.172-0.427-0.269-0.634 c-0.051-0.109-0.105-0.216-0.16-0.323c-0.111-0.216-0.23-0.426-0.355-0.632c-0.059-0.097-0.118-0.193-0.181-0.288 c-0.139-0.211-0.288-0.415-0.442-0.613c-0.046-0.059-0.083-0.123-0.131-0.182c-0.02-0.025-0.044-0.046-0.064-0.07 c-0.176-0.212-0.362-0.414-0.553-0.61c-0.057-0.058-0.11-0.121-0.168-0.178c-0.247-0.241-0.505-0.469-0.775-0.682 c-0.091-0.072-0.189-0.134-0.282-0.203c-0.183-0.135-0.367-0.269-0.559-0.391c-0.129-0.082-0.263-0.155-0.396-0.231 c-0.167-0.096-0.334-0.191-0.507-0.277c-0.141-0.07-0.284-0.134-0.428-0.198c-0.176-0.078-0.354-0.152-0.534-0.219 c-0.142-0.053-0.285-0.104-0.43-0.151c-0.195-0.063-0.392-0.118-0.591-0.169c-0.136-0.035-0.272-0.071-0.41-0.1 c-0.222-0.047-0.447-0.082-0.674-0.114c-0.121-0.017-0.24-0.039-0.362-0.052c-0.278-0.029-0.56-0.042-0.843-0.047 c-0.065-0.001-0.129-0.011-0.195-0.011h-0.059c-0.002,0-0.003,0-0.005,0H261.114c4.108-11.387,15.021-19.551,27.806-19.551 c7.063,0,13.899,2.531,19.248,7.127c4.191,3.603,10.504,3.123,14.102-1.066c3.6-4.188,3.122-10.502-1.066-14.102 c-8.974-7.712-20.439-11.959-32.283-11.959c-23.897,0-43.898,17.006-48.536,39.551h-115.04c4.108-11.387,15.02-19.551,27.806-19.551 c7.064,0,13.899,2.531,19.247,7.127c4.188,3.6,10.502,3.123,14.102-1.066c3.6-4.188,3.122-10.502-1.066-14.102 c-8.973-7.712-20.438-11.959-32.282-11.959c-23.898,0-43.898,17.006-48.536,39.551H73.529c-4.724,0-8.803,3.305-9.782,7.925 l-16.957,79.94c-0.006,0.031-0.013,0.061-0.019,0.092L0.218,388.446c-0.626,2.951,0.113,6.026,2.012,8.37 c1.899,2.344,4.754,3.705,7.771,3.705h294.941c4.724,0,8.803-3.305,9.782-7.925l53.747-253.376l51.186,241.301h-84.715 c-5.522,0-10,4.478-10,10s4.478,10,10,10H432c3.017,0,5.871-1.361,7.771-3.705C441.669,394.473,442.408,391.397,441.782,388.446z  M81.631,101.029h22.982c4.638,22.545,24.639,39.551,48.536,39.551c5.522,0,10-4.478,10-10c0-5.522-4.478-10-10-10 c-12.785,0-23.698-8.164-27.806-19.551h115.04c4.638,22.545,24.639,39.551,48.536,39.551c5.522,0,10-4.478,10-10 c0-5.522-4.478-10-10-10c-12.785,0-23.698-8.164-27.806-19.551h95.013l-12.713,59.933H68.918L81.631,101.029z M296.84,380.522 H22.344l42.332-199.56h274.496L296.84,380.522z"></path><g></g><g></g><g></g><g></g><g></g><g></g><g></g><g></g><g></g><g></g><g></g><g></g><g></g><g></g><g></g></svg>